<svg width="36" height="36" viewBox="0 0 36 36" fill="none" xmlns="http://www.w3.org/2000/svg">
<path d="M11.3213 32.6259C24.9062 32.6259 32.3366 21.3709 32.3366 11.6105C32.3366 11.2909 32.3366 10.9726 32.315 10.6558C33.7606 9.61025 35.0084 8.31564 36 6.83262C34.6521 7.43022 33.2221 7.82195 31.7578 7.9947C33.2997 7.07173 34.4537 5.61987 35.005 3.90942C33.5551 4.76983 31.969 5.37616 30.3149 5.70222C29.2013 4.51808 27.7284 3.73398 26.1243 3.47124C24.5201 3.20851 22.8741 3.48179 21.441 4.2488C20.0078 5.0158 18.8673 6.23378 18.1961 7.71424C17.5249 9.1947 17.3603 10.8551 17.7278 12.4385C14.7913 12.2912 11.9186 11.5281 9.29618 10.1986C6.67373 8.86916 4.36015 7.00311 2.5056 4.72158C1.56109 6.34757 1.27181 8.27242 1.69665 10.1042C2.12149 11.936 3.22851 13.537 4.79232 14.5813C3.61685 14.5468 2.46697 14.2297 1.44 13.6568V13.7504C1.44047 15.4557 2.03078 17.1083 3.11081 18.4279C4.19084 19.7476 5.69409 20.653 7.3656 20.9907C6.27822 21.2873 5.13731 21.3307 4.03056 21.1174C4.50272 22.5849 5.42164 23.8682 6.65886 24.7878C7.89607 25.7075 9.38974 26.2175 10.931 26.2467C9.39966 27.4504 7.64597 28.3404 5.77031 28.8657C3.89465 29.391 1.93382 29.5414 0 29.3081C3.37775 31.4757 7.30789 32.6254 11.3213 32.6201" fill="#1DA1F2"/>
</svg>
