<svg width="36" height="36" viewBox="0 0 36 36" fill="none" xmlns="http://www.w3.org/2000/svg">
<g clip-path="url(#clip0_454_1046)">
<path d="M0 17.25C0 9.1188 0 5.052 2.526 2.526C5.052 0 9.12 0 17.25 0H18.75C26.8812 0 30.948 0 33.474 2.526C36 5.052 36 9.12 36 17.25V18.75C36 26.8812 36 30.948 33.474 33.474C30.948 36 26.88 36 18.75 36H17.25C9.1188 36 5.052 36 2.526 33.474C0 30.948 0 26.88 0 18.75V17.25Z" fill="#2787F5"/>
<path fill-rule="evenodd" clip-rule="evenodd" d="M9.74999 11.25H7.12559C6.37559 11.25 6.22559 11.6028 6.22559 11.9928C6.22559 12.6876 7.11479 16.1364 10.3692 20.6964C12.5376 23.8116 15.594 25.5 18.3744 25.5C20.0436 25.5 20.25 25.1244 20.25 24.48V22.1256C20.25 21.3756 20.4084 21.2256 20.9364 21.2256C21.3264 21.2256 21.9924 21.42 23.5512 22.9212C25.3308 24.702 25.6236 25.5 26.6244 25.5H29.25C30 25.5 30.3756 25.1244 30.1584 24.384C29.922 23.6472 29.0724 22.5768 27.9444 21.3084C27.3324 20.586 26.4156 19.8072 26.1372 19.4172C25.7472 18.9168 25.8588 18.6948 26.1372 18.2496C26.1372 18.2496 29.3352 13.7448 29.6688 12.2148C29.8368 11.6592 29.6688 11.25 28.8744 11.25H26.25C25.5828 11.25 25.2744 11.6028 25.1076 11.9928C25.1076 11.9928 23.7732 15.246 21.882 17.3592C21.27 17.9712 20.9916 18.1668 20.658 18.1668C20.4912 18.1668 20.25 17.9712 20.25 17.4156V12.2148C20.25 11.5476 20.0568 11.25 19.5 11.25H15.3744C14.958 11.25 14.7072 11.5596 14.7072 11.8536C14.7072 12.486 15.6528 12.6324 15.75 14.412V18.2772C15.75 19.1256 15.5976 19.2792 15.2628 19.2792C14.3736 19.2792 12.2088 16.0104 10.9248 12.2712C10.6728 11.544 10.4208 11.25 9.74999 11.25Z" fill="white"/>
</g>
<defs>
<clipPath id="clip0_454_1046">
<rect width="36" height="36" fill="white"/>
</clipPath>
</defs>
</svg>
