<svg width="36" height="36" viewBox="0 0 36 36" fill="none" xmlns="http://www.w3.org/2000/svg">
<g clip-path="url(#clip0_454_1014)">
<path d="M35.5 18C35.5 26.532 29.3935 33.6387 21.3125 35.1868V23.7031H25.0066H25.4358L25.5009 23.2789L26.2989 18.0758L26.3872 17.5H25.8047H21.3125V14.625C21.3125 13.9852 21.47 13.4152 21.819 13.0114C22.1563 12.6212 22.7366 12.3125 23.7459 12.3125H26.0156H26.5156V11.8125V7.38281V6.9609L26.0997 6.88994L26.0156 7.38281C26.0997 6.88994 26.0997 6.88993 26.0996 6.88992L26.0995 6.88989L26.099 6.88982L26.0976 6.88958L26.0925 6.88872L26.0736 6.88556L26.0021 6.87396C25.9401 6.86405 25.8498 6.85001 25.7357 6.83321C25.5075 6.79963 25.1832 6.75497 24.7966 6.71033C24.0256 6.62131 22.9974 6.53125 21.9864 6.53125C19.8296 6.53125 17.9912 7.18671 16.6914 8.4877C15.3911 9.7892 14.6875 11.679 14.6875 14.0344V17.5H10.6172H10.1172V18V23.2031V23.7031H10.6172H14.6875V35.1868C6.60654 33.6387 0.5 26.532 0.5 18C0.5 8.33501 8.33501 0.5 18 0.5C27.665 0.5 35.5 8.33501 35.5 18Z" stroke="#1877F2"/>
<path d="M25.0066 23.2031L25.8047 18H20.8125V14.625C20.8125 13.2015 21.51 11.8125 23.7459 11.8125H26.0156V7.38281C26.0156 7.38281 23.9558 7.03125 21.9864 7.03125C17.8748 7.03125 15.1875 9.52313 15.1875 14.0344V18H10.6172V23.2031H15.1875V35.7813C17.0512 36.0729 18.9488 36.0729 20.8125 35.7813V23.2031H25.0066Z" fill="white"/>
</g>
<defs>
<clipPath id="clip0_454_1014">
<rect width="36" height="36" fill="white"/>
</clipPath>
</defs>
</svg>
